<mxfile host="app.diagrams.net" agent="Mozilla/5.0 (Windows NT 10.0; Win64; x64) AppleWebKit/537.36 (KHTML, like Gecko) Chrome/133.0.0.0 Safari/537.36" version="26.0.16">
  <diagram name="PÃ¡gina-1" id="mXXeM9qZpzDEx3kGBecD">
    <mxGraphModel dx="1032" dy="513" grid="1" gridSize="10" guides="1" tooltips="1" connect="1" arrows="1" fold="1" page="1" pageScale="1" pageWidth="827" pageHeight="1169" math="0" shadow="0">
      <root>
        <mxCell id="0" />
        <mxCell id="1" parent="0" />
        <mxCell id="JitObn41db6_o8aK2a7l-60" style="edgeStyle=orthogonalEdgeStyle;rounded=0;orthogonalLoop=1;jettySize=auto;html=1;exitX=1;exitY=0.5;exitDx=0;exitDy=0;entryX=0;entryY=0.5;entryDx=0;entryDy=0;" parent="1" source="JitObn41db6_o8aK2a7l-58" target="JitObn41db6_o8aK2a7l-59" edge="1">
          <mxGeometry relative="1" as="geometry">
            <mxPoint x="438.9999999999998" y="285.11764705882354" as="targetPoint" />
          </mxGeometry>
        </mxCell>
        <mxCell id="JitObn41db6_o8aK2a7l-74" style="edgeStyle=orthogonalEdgeStyle;rounded=0;orthogonalLoop=1;jettySize=auto;html=1;exitX=0;exitY=0.25;exitDx=0;exitDy=0;entryX=1;entryY=0.5;entryDx=0;entryDy=0;" parent="1" source="JitObn41db6_o8aK2a7l-58" target="JitObn41db6_o8aK2a7l-68" edge="1">
          <mxGeometry relative="1" as="geometry" />
        </mxCell>
        <mxCell id="JitObn41db6_o8aK2a7l-75" style="edgeStyle=orthogonalEdgeStyle;rounded=0;orthogonalLoop=1;jettySize=auto;html=1;exitX=0;exitY=0;exitDx=0;exitDy=0;entryX=1;entryY=0.5;entryDx=0;entryDy=0;" parent="1" source="JitObn41db6_o8aK2a7l-58" target="JitObn41db6_o8aK2a7l-69" edge="1">
          <mxGeometry relative="1" as="geometry" />
        </mxCell>
        <mxCell id="JitObn41db6_o8aK2a7l-76" style="edgeStyle=orthogonalEdgeStyle;rounded=0;orthogonalLoop=1;jettySize=auto;html=1;exitX=0;exitY=0.5;exitDx=0;exitDy=0;entryX=1;entryY=0.5;entryDx=0;entryDy=0;" parent="1" source="JitObn41db6_o8aK2a7l-58" target="JitObn41db6_o8aK2a7l-70" edge="1">
          <mxGeometry relative="1" as="geometry" />
        </mxCell>
        <mxCell id="JitObn41db6_o8aK2a7l-77" style="edgeStyle=orthogonalEdgeStyle;rounded=0;orthogonalLoop=1;jettySize=auto;html=1;exitX=0;exitY=1;exitDx=0;exitDy=0;entryX=1;entryY=0.5;entryDx=0;entryDy=0;" parent="1" source="JitObn41db6_o8aK2a7l-58" target="JitObn41db6_o8aK2a7l-71" edge="1">
          <mxGeometry relative="1" as="geometry" />
        </mxCell>
        <mxCell id="JitObn41db6_o8aK2a7l-94" style="edgeStyle=orthogonalEdgeStyle;rounded=0;orthogonalLoop=1;jettySize=auto;html=1;exitX=0.25;exitY=1;exitDx=0;exitDy=0;entryX=1;entryY=0.5;entryDx=0;entryDy=0;" parent="1" source="JitObn41db6_o8aK2a7l-58" target="JitObn41db6_o8aK2a7l-93" edge="1">
          <mxGeometry relative="1" as="geometry" />
        </mxCell>
        <mxCell id="JitObn41db6_o8aK2a7l-58" value="Marca" style="rounded=0;whiteSpace=wrap;html=1;" parent="1" vertex="1">
          <mxGeometry x="249" y="255" width="120" height="60" as="geometry" />
        </mxCell>
        <mxCell id="JitObn41db6_o8aK2a7l-78" style="edgeStyle=orthogonalEdgeStyle;rounded=0;orthogonalLoop=1;jettySize=auto;html=1;exitX=1;exitY=0.5;exitDx=0;exitDy=0;entryX=0;entryY=0.5;entryDx=0;entryDy=0;" parent="1" source="JitObn41db6_o8aK2a7l-59" target="JitObn41db6_o8aK2a7l-65" edge="1">
          <mxGeometry relative="1" as="geometry" />
        </mxCell>
        <mxCell id="JitObn41db6_o8aK2a7l-79" style="edgeStyle=orthogonalEdgeStyle;rounded=0;orthogonalLoop=1;jettySize=auto;html=1;exitX=1;exitY=0.25;exitDx=0;exitDy=0;entryX=0;entryY=0.5;entryDx=0;entryDy=0;" parent="1" source="JitObn41db6_o8aK2a7l-59" target="JitObn41db6_o8aK2a7l-64" edge="1">
          <mxGeometry relative="1" as="geometry" />
        </mxCell>
        <mxCell id="JitObn41db6_o8aK2a7l-80" style="edgeStyle=orthogonalEdgeStyle;rounded=0;orthogonalLoop=1;jettySize=auto;html=1;exitX=1;exitY=0;exitDx=0;exitDy=0;entryX=0;entryY=0.5;entryDx=0;entryDy=0;" parent="1" source="JitObn41db6_o8aK2a7l-59" target="JitObn41db6_o8aK2a7l-63" edge="1">
          <mxGeometry relative="1" as="geometry" />
        </mxCell>
        <mxCell id="JitObn41db6_o8aK2a7l-81" style="edgeStyle=orthogonalEdgeStyle;rounded=0;orthogonalLoop=1;jettySize=auto;html=1;exitX=0.75;exitY=0;exitDx=0;exitDy=0;entryX=0;entryY=0.5;entryDx=0;entryDy=0;" parent="1" source="JitObn41db6_o8aK2a7l-59" target="JitObn41db6_o8aK2a7l-62" edge="1">
          <mxGeometry relative="1" as="geometry" />
        </mxCell>
        <mxCell id="JitObn41db6_o8aK2a7l-59" value="Modelo" style="rounded=0;whiteSpace=wrap;html=1;" parent="1" vertex="1">
          <mxGeometry x="449" y="255" width="120" height="60" as="geometry" />
        </mxCell>
        <mxCell id="JitObn41db6_o8aK2a7l-61" value="1:N" style="text;html=1;align=center;verticalAlign=middle;resizable=0;points=[];autosize=1;strokeColor=none;fillColor=none;" parent="1" vertex="1">
          <mxGeometry x="389" y="255" width="40" height="30" as="geometry" />
        </mxCell>
        <mxCell id="JitObn41db6_o8aK2a7l-62" value="idMarca" style="ellipse;whiteSpace=wrap;html=1;" parent="1" vertex="1">
          <mxGeometry x="619" y="170" width="100" height="50" as="geometry" />
        </mxCell>
        <mxCell id="JitObn41db6_o8aK2a7l-63" value="idModelo" style="ellipse;whiteSpace=wrap;html=1;" parent="1" vertex="1">
          <mxGeometry x="619" y="230" width="100" height="50" as="geometry" />
        </mxCell>
        <mxCell id="JitObn41db6_o8aK2a7l-64" value="Nome" style="ellipse;whiteSpace=wrap;html=1;" parent="1" vertex="1">
          <mxGeometry x="619" y="290" width="100" height="50" as="geometry" />
        </mxCell>
        <mxCell id="JitObn41db6_o8aK2a7l-65" value="Ano lancamento" style="ellipse;whiteSpace=wrap;html=1;" parent="1" vertex="1">
          <mxGeometry x="619" y="350" width="100" height="50" as="geometry" />
        </mxCell>
        <mxCell id="JitObn41db6_o8aK2a7l-68" value="idModelo" style="ellipse;whiteSpace=wrap;html=1;" parent="1" vertex="1">
          <mxGeometry x="109" y="240" width="100" height="50" as="geometry" />
        </mxCell>
        <mxCell id="JitObn41db6_o8aK2a7l-69" value="idMarca" style="ellipse;whiteSpace=wrap;html=1;" parent="1" vertex="1">
          <mxGeometry x="109" y="175" width="100" height="50" as="geometry" />
        </mxCell>
        <mxCell id="JitObn41db6_o8aK2a7l-70" value="Nome" style="ellipse;whiteSpace=wrap;html=1;" parent="1" vertex="1">
          <mxGeometry x="109" y="305" width="100" height="50" as="geometry" />
        </mxCell>
        <mxCell id="JitObn41db6_o8aK2a7l-71" value="Abreviatura" style="ellipse;whiteSpace=wrap;html=1;" parent="1" vertex="1">
          <mxGeometry x="109" y="365" width="100" height="50" as="geometry" />
        </mxCell>
        <mxCell id="JitObn41db6_o8aK2a7l-93" value="Pais origem" style="ellipse;whiteSpace=wrap;html=1;" parent="1" vertex="1">
          <mxGeometry x="109" y="425" width="100" height="50" as="geometry" />
        </mxCell>
        <mxCell id="yYPYy_amQzQrS-2x9Qog-1" value="&lt;h1&gt;Problema 7&lt;/h1&gt;" style="text;html=1;align=center;verticalAlign=middle;resizable=0;points=[];autosize=1;strokeColor=none;fillColor=none;" vertex="1" parent="1">
          <mxGeometry x="339" y="20" width="150" height="70" as="geometry" />
        </mxCell>
      </root>
    </mxGraphModel>
  </diagram>
</mxfile>
